<svg width="14" height="14" viewBox="0 0 14 14" fill="none" xmlns="http://www.w3.org/2000/svg">
<g clip-path="url(#clip0_502_442)">
<path d="M12.8334 6.46332V6.99999C12.8327 8.2579 12.4254 9.48189 11.6722 10.4894C10.919 11.4969 9.86033 12.2339 8.65404 12.5906C7.44775 12.9473 6.15848 12.9044 4.97852 12.4685C3.79856 12.0326 2.79113 11.2269 2.10648 10.1716C1.42182 9.11634 1.09663 7.86803 1.17939 6.61284C1.26216 5.35765 1.74845 4.16285 2.56574 3.20662C3.38304 2.25039 4.48754 1.58396 5.71453 1.30674C6.94151 1.02952 8.22524 1.15635 9.37425 1.66832M12.8334 2.33332L7.00009 8.17249L5.25008 6.42249" stroke="#027A48" stroke-width="1.16667" stroke-linecap="round" stroke-linejoin="round"/>
</g>
<defs>
<clipPath id="clip0_502_442">
<rect width="14" height="14" fill="white"/>
</clipPath>
</defs>
</svg>
