<svg width="40" height="48" viewBox="0 0 40 48" fill="none" xmlns="http://www.w3.org/2000/svg">
<path d="M16.2665 0.283871C12.113 1.11457 8.8043 2.88862 5.8194 5.8876C2.76411 8.95697 1.04638 12.2235 0.173439 16.6727C-0.0940752 17.968 -0.0377563 22.0652 0.243838 23.4309C0.919664 26.6129 1.94748 29.0487 3.67929 31.5267C4.28471 32.3997 19.6879 48 19.9413 48C20.1807 48 35.1052 32.9488 35.8655 31.9351C39.8923 26.5566 40.9624 19.7561 38.7941 13.3639C37.2172 8.74577 33.6268 4.59226 29.1776 2.25503C27.122 1.17089 25.4324 0.607704 22.7995 0.143074C21.4479 -0.096283 17.7872 -0.0258827 16.2665 0.283871ZM22.4335 10.6888C22.6024 10.8014 22.6587 11.4209 22.7151 14.3777L22.7854 17.9398L26.2209 17.9821C29.1776 18.0102 29.6986 18.0525 29.9239 18.2496C30.1491 18.4467 30.1773 18.7424 30.1773 20.967C30.1773 23.1916 30.1491 23.4872 29.9239 23.6843C29.6986 23.8815 29.1776 23.9237 26.2209 23.9519L22.7854 23.9941L22.7151 27.5563C22.6587 30.513 22.6024 31.1325 22.4335 31.2451C22.3208 31.3155 21.11 31.3859 19.7442 31.3859C17.5337 31.3859 17.238 31.3578 17.0409 31.1325C16.8438 30.9072 16.8016 30.3863 16.7734 27.4295L16.7312 23.9941L13.2957 23.9519C10.339 23.9237 9.81804 23.8815 9.59276 23.6843C9.36749 23.4872 9.33933 23.1916 9.33933 20.9951C9.33933 18.8972 9.36749 18.4889 9.57868 18.2637C9.78988 18.0384 10.0996 18.0102 13.3098 18.0102H16.8016V14.5325C16.8016 11.5054 16.8297 11.0267 17.0409 10.8014C17.238 10.5761 17.5196 10.548 19.7442 10.548C21.11 10.548 22.3208 10.6184 22.4335 10.6888Z" fill="#E50914"/>
</svg>
