<svg version="1.2" xmlns="http://www.w3.org/2000/svg" viewBox="0 0 40 48" width="40" height="48">
	<title>ejy-health-svg</title>
	<style>
		.s0 { fill: #ffffff } 
		.s1 { fill: #e50914 } 
	</style>
	<path id="Layer 1" class="s0" d="m6 9h27v23h-27z"/>
	<path id="Layer" fill-rule="evenodd" class="s1" d="m22.8 0.1c2.6 0.5 4.3 1.1 6.4 2.2 4.4 2.3 8 6.4 9.6 11.1 2.2 6.4 1.1 13.2-2.9 18.5-0.8 1-15.7 16.1-16 16.1-0.2 0-15.6-15.6-16.2-16.5-1.8-2.5-2.8-4.9-3.5-8.1-0.2-1.3-0.3-5.4 0-6.7 0.8-4.5 2.6-7.7 5.6-10.8 3-3 6.3-4.8 10.5-5.6 1.5-0.3 5.1-0.4 6.5-0.2zm-3.1 10.4c-2.2 0-2.5 0.1-2.7 0.3-0.2 0.2-0.2 0.7-0.2 3.7v3.5h-3.5c-3.2 0-3.5 0-3.7 0.3-0.2 0.2-0.3 0.6-0.3 2.7 0 2.2 0.1 2.5 0.3 2.7 0.2 0.2 0.7 0.2 3.7 0.3h3.4l0.1 3.4c0 3 0 3.5 0.2 3.7 0.2 0.3 0.5 0.3 2.7 0.3 1.4 0 2.6-0.1 2.7-0.2 0.2-0.1 0.3-0.7 0.3-3.6l0.1-3.6h3.4c3-0.1 3.5-0.1 3.7-0.3 0.2-0.2 0.3-0.5 0.3-2.7 0-2.3-0.1-2.6-0.3-2.8-0.2-0.1-0.7-0.2-3.7-0.2l-3.4-0.1-0.1-3.5c0-3-0.1-3.6-0.3-3.7-0.1-0.1-1.3-0.2-2.7-0.2z"/>
</svg>